<svg width="223" height="203" viewBox="0 0 223 203" fill="none" xmlns="http://www.w3.org/2000/svg">
<path d="M148 143.5H87.5V199L116.5 201.5L148 143.5Z" fill="#D9DEF4" stroke="#D9DEF4"/>
<path d="M86.5 142L10.5 178L86.5 198.5V142Z" fill="#EDF0F9" stroke="#EDF0F9"/>
<path d="M91 94.5L9.5 177.5L86.5 142L91 94.5Z" fill="#F4FAFA" stroke="#F4FAFA"/>
<path d="M209.5 81.5L152.5 60L164.5 116L209.5 81.5Z" fill="#D8DDF3" stroke="#D8DDF3"/>
<path d="M152.5 60L92 96.5L168 132L152.5 60Z" fill="#EDF1FC" stroke="#EDF1FC"/>
<path d="M91 96.5L78.5 13L153 59.5L91 96.5Z" fill="#EBF4FB" stroke="#EBF4FB"/>
<path d="M23 39L10 176L92 93L23 39Z" fill="#F1F9FB" stroke="#F1F9FB"/>
<path d="M153.5 126.5L147.5 143.5H86.5L91.5 95L153.5 126.5Z" fill="#D9DEF4" stroke="#D9DEF4"/>
<path d="M78.5 13.5L23 38.5L90 92.5L78.5 13.5Z" fill="#F2F2FA" stroke="#F2F2FA"/>
<path d="M150 60L110.5 34L169.5 2L150 60Z" fill="#EEEEEE" stroke="#EEEEEE"/>
<path d="M209 81.5L154 124.5L148.5 139L213.5 177L209 81.5Z" fill="#D4EBF8" stroke="#D4EBF8"/>
<g filter="url(#filter0_f_15_218)">
<circle cx="90.5" cy="94.5" r="9.5" fill="white"/>
</g>
<g filter="url(#filter1_f_15_218)">
<circle cx="152.5" cy="138.5" r="9.5" fill="white"/>
</g>
<g filter="url(#filter2_f_15_218)">
<circle cx="13.5" cy="175.5" r="9.5" fill="white"/>
</g>
<g filter="url(#filter3_f_15_218)">
<circle cx="77.5" cy="13.5" r="9.5" fill="white"/>
</g>
<g filter="url(#filter4_f_15_218)">
<circle cx="209.5" cy="81.5" r="9.5" fill="white"/>
</g>
<defs>
<filter id="filter0_f_15_218" x="77" y="81" width="27" height="27" filterUnits="userSpaceOnUse" color-interpolation-filters="sRGB">
<feFlood flood-opacity="0" result="BackgroundImageFix"/>
<feBlend mode="normal" in="SourceGraphic" in2="BackgroundImageFix" result="shape"/>
<feGaussianBlur stdDeviation="2" result="effect1_foregroundBlur_15_218"/>
</filter>
<filter id="filter1_f_15_218" x="139" y="125" width="27" height="27" filterUnits="userSpaceOnUse" color-interpolation-filters="sRGB">
<feFlood flood-opacity="0" result="BackgroundImageFix"/>
<feBlend mode="normal" in="SourceGraphic" in2="BackgroundImageFix" result="shape"/>
<feGaussianBlur stdDeviation="2" result="effect1_foregroundBlur_15_218"/>
</filter>
<filter id="filter2_f_15_218" x="0" y="162" width="27" height="27" filterUnits="userSpaceOnUse" color-interpolation-filters="sRGB">
<feFlood flood-opacity="0" result="BackgroundImageFix"/>
<feBlend mode="normal" in="SourceGraphic" in2="BackgroundImageFix" result="shape"/>
<feGaussianBlur stdDeviation="2" result="effect1_foregroundBlur_15_218"/>
</filter>
<filter id="filter3_f_15_218" x="64" y="0" width="27" height="27" filterUnits="userSpaceOnUse" color-interpolation-filters="sRGB">
<feFlood flood-opacity="0" result="BackgroundImageFix"/>
<feBlend mode="normal" in="SourceGraphic" in2="BackgroundImageFix" result="shape"/>
<feGaussianBlur stdDeviation="2" result="effect1_foregroundBlur_15_218"/>
</filter>
<filter id="filter4_f_15_218" x="196" y="68" width="27" height="27" filterUnits="userSpaceOnUse" color-interpolation-filters="sRGB">
<feFlood flood-opacity="0" result="BackgroundImageFix"/>
<feBlend mode="normal" in="SourceGraphic" in2="BackgroundImageFix" result="shape"/>
<feGaussianBlur stdDeviation="2" result="effect1_foregroundBlur_15_218"/>
</filter>
</defs>
</svg>
